<svg width="380" height="480" viewBox="0 0 380 480" fill="none" xmlns="http://www.w3.org/2000/svg">
<circle cx="120.7" cy="91.55" r="40.28" fill="url(#paint0_radial_4_6)"/>
<circle cx="258.5" cy="91.55" r="40.28" fill="url(#paint1_radial_4_6)"/>
<path d="M120.7 194.9C94.2 213.45 83.6 250.55 94.2 282.35C102.15 306.2 128.65 306.2 144.55 285C157.8 263.8 155.15 226.7 141.9 200.2L120.7 194.9Z" fill="url(#paint2_radial_4_6)"/>
<path d="M258.5 194.9C285 213.45 295.6 250.55 285 282.35C277.05 306.2 250.55 306.2 234.65 285C221.4 263.8 224.05 226.7 237.3 200.2L258.5 194.9Z" fill="url(#paint3_radial_4_6)"/>
<g filter="url(#filter0_di_4_6)">
<path d="M110.1 181.65C123.35 147.2 157.8 131.3 189.6 131.3C221.4 131.3 255.85 147.2 269.1 181.65L282.35 263.8C292.95 314.15 253.2 338 189.6 338C126 338 86.25 314.15 96.85 263.8L110.1 181.65Z" fill="url(#paint4_radial_4_6)"/>
</g>
<ellipse opacity="0.72" cx="189.6" cy="258.5" rx="68.9" ry="66.25" fill="url(#paint5_radial_4_6)"/>
<g filter="url(#filter1_di_4_6)">
<path d="M189.6 59.75C247.9 59.75 287.65 94.2 298.25 141.9C311.5 200.2 261.15 234.65 189.6 234.65C118.05 234.65 67.7 200.2 80.95 141.9C91.55 94.2 131.3 59.75 189.6 59.75Z" fill="url(#paint6_radial_4_6)"/>
</g>
<g filter="url(#filter2_di_4_6)">
<path d="M189.771 60C248.071 60 287.821 94.45 298.421 142.15C311.671 200.45 261.321 234.9 189.771 234.9C118.221 234.9 67.8709 200.45 81.1209 142.15C91.7209 94.45 131.471 60 189.771 60Z" fill="url(#paint7_radial_4_6)"/>
</g>
<path opacity="0.14" d="M91.55 152.5C110.1 200.2 149.85 226.7 189.6 226.7C229.35 226.7 269.1 200.2 287.65 152.5C285 210.8 239.95 245.25 189.6 245.25C139.25 245.25 94.2 210.8 91.55 152.5Z" fill="#9FBBD2" fill-opacity="0.2"/>
<path d="M156.512 131.639C179.012 146.639 145.763 198.434 125.013 184.139C104.263 169.844 134.013 116.639 156.512 131.639Z" fill="#111A28"/>
<ellipse cx="142.72" cy="153.37" rx="12.72" ry="15.37" fill="#07101D"/>
<ellipse cx="142.19" cy="153.9" rx="7.685" ry="9.275" fill="#203653" fill-opacity="0.82"/>
<circle cx="145.9" cy="146.215" r="4.505" fill="#EFF8FF"/>
<path d="M222.512 132.639C200.012 147.639 233.262 199.434 254.012 185.139C274.762 170.844 245.012 117.639 222.512 132.639Z" fill="#111A28"/>
<ellipse cx="183" cy="256" rx="65" ry="60" fill="url(#paint8_radial_4_6)"/>
<ellipse cx="232.88" cy="153.985" rx="12.72" ry="15.37" fill="#07101D"/>
<ellipse cx="232.35" cy="154.515" rx="7.685" ry="9.275" fill="#203653" fill-opacity="0.82"/>
<circle cx="236.06" cy="146.83" r="4.505" fill="#EFF8FF"/>
<path d="M161.087 169.5C164.636 155.493 215.837 155.493 219.387 169.5C222.936 183.507 200.837 194.94 190.237 194.94C179.637 194.94 157.537 183.507 161.087 169.5Z" fill="#F5F9FC" fill-opacity="0.74"/>
<path d="M175.17 170.568C176.771 163.144 202.719 163.144 204.32 170.568C205.921 177.992 195.84 182.493 189.745 182.493C183.65 182.493 173.569 177.992 175.17 170.568Z" fill="#101827"/>
<path d="M189 177L189 195" stroke="#26364B" stroke-width="2.65"/>
<path d="M175 190C182.155 196.89 196.995 196.89 204.15 190" stroke="#52637A" stroke-width="3.445"/>
<path d="M131.3 269.1C147.2 258.5 171.05 263.8 179 282.35C186.95 303.55 179 330.05 163.1 338C144.55 345.95 128.65 335.35 126 311.5C123.35 290.3 120.7 279.7 131.3 269.1Z" fill="url(#paint9_radial_4_6)"/>
<path d="M247.9 269.1C232 258.5 208.15 263.8 200.2 282.35C192.25 303.55 200.2 330.05 216.1 338C234.65 345.95 250.55 335.35 253.2 311.5C255.85 290.3 258.5 279.7 247.9 269.1Z" fill="url(#paint10_radial_4_6)"/>
<path d="M123.35 319.45C133.95 306.2 171.05 306.2 179 322.1C186.95 340.65 163.1 348.6 147.2 345.95C131.3 345.95 118.05 335.35 123.35 319.45Z" fill="url(#paint11_radial_4_6)"/>
<path d="M255.85 319.45C245.25 306.2 208.15 306.2 200.2 322.1C192.25 340.65 216.1 348.6 232 345.95C247.9 345.95 261.15 335.35 255.85 319.45Z" fill="url(#paint12_radial_4_6)"/>
<ellipse cx="151.175" cy="326.075" rx="13.78" ry="7.685" fill="#6F5750" fill-opacity="0.66"/>
<ellipse cx="228.025" cy="326.075" rx="13.78" ry="7.685" fill="#6F5750" fill-opacity="0.66"/>
<ellipse cx="129" cy="90" rx="63" ry="48" fill="url(#paint13_radial_4_6)"/>
<ellipse cx="89" cy="54" rx="35" ry="17" fill="url(#paint14_radial_4_6)"/>
<defs>
<filter id="filter0_di_4_6" x="81.144" y="126.3" width="216.912" height="234.7" filterUnits="userSpaceOnUse" color-interpolation-filters="sRGB">
<feFlood flood-opacity="0" result="BackgroundImageFix"/>
<feColorMatrix in="SourceAlpha" type="matrix" values="0 0 0 0 0 0 0 0 0 0 0 0 0 0 0 0 0 0 127 0" result="hardAlpha"/>
<feMorphology radius="8" operator="erode" in="SourceAlpha" result="effect1_dropShadow_4_6"/>
<feOffset dy="9"/>
<feGaussianBlur stdDeviation="11"/>
<feColorMatrix type="matrix" values="0 0 0 0 0.290196 0 0 0 0 0.564706 0 0 0 0 0.886275 0 0 0 0.12 0"/>
<feBlend mode="normal" in2="BackgroundImageFix" result="effect1_dropShadow_4_6"/>
<feBlend mode="normal" in="SourceGraphic" in2="effect1_dropShadow_4_6" result="shape"/>
<feColorMatrix in="SourceAlpha" type="matrix" values="0 0 0 0 0 0 0 0 0 0 0 0 0 0 0 0 0 0 127 0" result="hardAlpha"/>
<feMorphology radius="8" operator="dilate" in="SourceAlpha" result="effect2_innerShadow_4_6"/>
<feOffset dy="12"/>
<feGaussianBlur stdDeviation="10"/>
<feComposite in2="hardAlpha" operator="arithmetic" k2="-1" k3="1"/>
<feColorMatrix type="matrix" values="0 0 0 0 0.423529 0 0 0 0 0.513726 0 0 0 0 0.596078 0 0 0 0.22 0"/>
<feBlend mode="normal" in2="shape" result="effect2_innerShadow_4_6"/>
</filter>
<filter id="filter1_di_4_6" x="66.8291" y="55.75" width="245.542" height="198.9" filterUnits="userSpaceOnUse" color-interpolation-filters="sRGB">
<feFlood flood-opacity="0" result="BackgroundImageFix"/>
<feColorMatrix in="SourceAlpha" type="matrix" values="0 0 0 0 0 0 0 0 0 0 0 0 0 0 0 0 0 0 127 0" result="hardAlpha"/>
<feMorphology radius="6" operator="erode" in="SourceAlpha" result="effect1_dropShadow_4_6"/>
<feOffset dy="8"/>
<feGaussianBlur stdDeviation="9"/>
<feColorMatrix type="matrix" values="0 0 0 0 0.415686 0 0 0 0 0.607843 0 0 0 0 0.815686 0 0 0 0.16 0"/>
<feBlend mode="normal" in2="BackgroundImageFix" result="effect1_dropShadow_4_6"/>
<feBlend mode="normal" in="SourceGraphic" in2="effect1_dropShadow_4_6" result="shape"/>
<feColorMatrix in="SourceAlpha" type="matrix" values="0 0 0 0 0 0 0 0 0 0 0 0 0 0 0 0 0 0 127 0" result="hardAlpha"/>
<feMorphology radius="8" operator="dilate" in="SourceAlpha" result="effect2_innerShadow_4_6"/>
<feOffset dy="10"/>
<feGaussianBlur stdDeviation="9"/>
<feComposite in2="hardAlpha" operator="arithmetic" k2="-1" k3="1"/>
<feColorMatrix type="matrix" values="0 0 0 0 0.415686 0 0 0 0 0.509804 0 0 0 0 0.596078 0 0 0 0.2 0"/>
<feBlend mode="normal" in2="shape" result="effect2_innerShadow_4_6"/>
</filter>
<filter id="filter2_di_4_6" x="67" y="56" width="245.542" height="198.9" filterUnits="userSpaceOnUse" color-interpolation-filters="sRGB">
<feFlood flood-opacity="0" result="BackgroundImageFix"/>
<feColorMatrix in="SourceAlpha" type="matrix" values="0 0 0 0 0 0 0 0 0 0 0 0 0 0 0 0 0 0 127 0" result="hardAlpha"/>
<feMorphology radius="6" operator="erode" in="SourceAlpha" result="effect1_dropShadow_4_6"/>
<feOffset dy="8"/>
<feGaussianBlur stdDeviation="9"/>
<feColorMatrix type="matrix" values="0 0 0 0 0.415686 0 0 0 0 0.607843 0 0 0 0 0.815686 0 0 0 0.16 0"/>
<feBlend mode="normal" in2="BackgroundImageFix" result="effect1_dropShadow_4_6"/>
<feBlend mode="normal" in="SourceGraphic" in2="effect1_dropShadow_4_6" result="shape"/>
<feColorMatrix in="SourceAlpha" type="matrix" values="0 0 0 0 0 0 0 0 0 0 0 0 0 0 0 0 0 0 127 0" result="hardAlpha"/>
<feMorphology radius="8" operator="dilate" in="SourceAlpha" result="effect2_innerShadow_4_6"/>
<feOffset dy="10"/>
<feGaussianBlur stdDeviation="9"/>
<feComposite in2="hardAlpha" operator="arithmetic" k2="-1" k3="1"/>
<feColorMatrix type="matrix" values="0 0 0 0 0.415686 0 0 0 0 0.509804 0 0 0 0 0.596078 0 0 0 0.2 0"/>
<feBlend mode="normal" in2="shape" result="effect2_innerShadow_4_6"/>
</filter>
<radialGradient id="paint0_radial_4_6" cx="0" cy="0" r="1" gradientUnits="userSpaceOnUse" gradientTransform="translate(120.7 93.3013) scale(43.7826)">
<stop stop-color="#29384D"/>
<stop offset="1" stop-color="#040914"/>
</radialGradient>
<radialGradient id="paint1_radial_4_6" cx="0" cy="0" r="1" gradientUnits="userSpaceOnUse" gradientTransform="translate(258.5 93.3013) scale(43.7826)">
<stop stop-color="#29384D"/>
<stop offset="1" stop-color="#040914"/>
</radialGradient>
<radialGradient id="paint2_radial_4_6" cx="0" cy="0" r="1" gradientUnits="userSpaceOnUse" gradientTransform="translate(121.7 250.039) scale(34.3061 57.4366)">
<stop stop-color="#29384D"/>
<stop offset="1" stop-color="#040914"/>
</radialGradient>
<radialGradient id="paint3_radial_4_6" cx="0" cy="0" r="1" gradientUnits="userSpaceOnUse" gradientTransform="translate(257.5 250.039) scale(34.3061 57.4366)">
<stop stop-color="#29384D"/>
<stop offset="1" stop-color="#040914"/>
</radialGradient>
<radialGradient id="paint4_radial_4_6" cx="0" cy="0" r="1" gradientUnits="userSpaceOnUse" gradientTransform="translate(187.178 247.254) scale(121.097 126.037)">
<stop stop-color="white"/>
<stop offset="0.48" stop-color="#F4FAFF"/>
<stop offset="0.78" stop-color="#DDEBF7"/>
<stop offset="1" stop-color="#BFD3E4"/>
</radialGradient>
<radialGradient id="paint5_radial_4_6" cx="0" cy="0" r="1" gradientUnits="userSpaceOnUse" gradientTransform="translate(189.6 262.181) scale(101.324 92.0139)">
<stop stop-color="white" stop-opacity="0.96"/>
<stop offset="0.55" stop-color="#F6FBFF" stop-opacity="0.82"/>
<stop offset="1" stop-color="#C9DDEC" stop-opacity="0.58"/>
</radialGradient>
<radialGradient id="paint6_radial_4_6" cx="0" cy="0" r="1" gradientUnits="userSpaceOnUse" gradientTransform="translate(194.752 157.369) scale(128.803 101.686)">
<stop stop-color="white"/>
<stop offset="0.42" stop-color="#F8FCFF"/>
<stop offset="0.72" stop-color="#E7F1FA"/>
<stop offset="1" stop-color="#C3D7E8"/>
</radialGradient>
<radialGradient id="paint7_radial_4_6" cx="0" cy="0" r="1" gradientUnits="userSpaceOnUse" gradientTransform="translate(194.923 157.619) scale(128.803 101.686)">
<stop stop-color="white"/>
<stop offset="0.42" stop-color="#F8FCFF"/>
<stop offset="0.72" stop-color="#E7F1FA"/>
<stop offset="1" stop-color="#C3D7E8"/>
</radialGradient>
<radialGradient id="paint8_radial_4_6" cx="0" cy="0" r="1" gradientUnits="userSpaceOnUse" gradientTransform="translate(186.611 266) scale(90.2778 83.3333)">
<stop stop-color="white" stop-opacity="0.52"/>
<stop offset="0.58" stop-color="white" stop-opacity="0.18"/>
<stop offset="1" stop-color="white" stop-opacity="0"/>
</radialGradient>
<radialGradient id="paint9_radial_4_6" cx="0" cy="0" r="1" gradientUnits="userSpaceOnUse" gradientTransform="translate(152.874 303.826) scale(31.7875 41.8003)">
<stop stop-color="#29384D"/>
<stop offset="1" stop-color="#040914"/>
</radialGradient>
<radialGradient id="paint10_radial_4_6" cx="0" cy="0" r="1" gradientUnits="userSpaceOnUse" gradientTransform="translate(226.326 303.826) scale(31.7875 41.8003)">
<stop stop-color="#29384D"/>
<stop offset="1" stop-color="#040914"/>
</radialGradient>
<radialGradient id="paint11_radial_4_6" cx="0" cy="0" r="1" gradientUnits="userSpaceOnUse" gradientTransform="translate(151.371 328.93) scale(31.7478 19.9053)">
<stop stop-color="#29384D"/>
<stop offset="1" stop-color="#040914"/>
</radialGradient>
<radialGradient id="paint12_radial_4_6" cx="0" cy="0" r="1" gradientUnits="userSpaceOnUse" gradientTransform="translate(227.829 328.93) scale(31.7478 19.9053)">
<stop stop-color="#29384D"/>
<stop offset="1" stop-color="#040914"/>
</radialGradient>
<radialGradient id="paint13_radial_4_6" cx="0" cy="0" r="1" gradientUnits="userSpaceOnUse" gradientTransform="translate(138 110.129) scale(90 77.4194)">
<stop stop-color="white" stop-opacity="0.58"/>
<stop offset="0.48" stop-color="white" stop-opacity="0.2"/>
<stop offset="1" stop-color="white" stop-opacity="0"/>
</radialGradient>
<radialGradient id="paint14_radial_4_6" cx="0" cy="0" r="1" gradientUnits="userSpaceOnUse" gradientTransform="translate(95.0667 61.7273) scale(46.6667 30.9091)">
<stop stop-color="white" stop-opacity="0.72"/>
<stop offset="0.72" stop-color="white" stop-opacity="0.18"/>
<stop offset="1" stop-color="white" stop-opacity="0"/>
</radialGradient>
</defs>
</svg>
